<svg width="22" height="22" viewBox="0 0 22 22" fill="none" xmlns="http://www.w3.org/2000/svg">
<g clip-path="url(#clip0_1236_3804)">
<path d="M11 0.5C12.1378 0.5 13.229 0.951981 14.0335 1.75651C14.838 2.56104 15.29 3.65222 15.29 4.79C15.29 9.56 17.03 10.5 17.5 10.5H4.5C4.98 10.5 6.71 9.55 6.71 4.79C6.71 3.65222 7.16198 2.56104 7.96651 1.75651C8.77104 0.951981 9.86222 0.5 11 0.5V0.5Z" stroke="#000001" stroke-linecap="round" stroke-linejoin="round"/>
<path d="M9.5 12.33C9.58644 12.662 9.7806 12.9559 10.0521 13.1658C10.3235 13.3756 10.6569 13.4894 11 13.4894C11.3431 13.4894 11.6765 13.3756 11.9479 13.1658C12.2194 12.9559 12.4136 12.662 12.5 12.33" stroke="#000001" stroke-linecap="round" stroke-linejoin="round"/>
</g>
</svg>
